<?xml version="1.0" standalone="no"?>
<!DOCTYPE svg PUBLIC "-//W3C//DTD SVG 20010904//EN"
 "http://www.w3.org/TR/2001/REC-SVG-20010904/DTD/svg10.dtd">
<svg version="1.1" id="Layer_1" xmlns="http://www.w3.org/2000/svg" xmlns:xlink="http://www.w3.org/1999/xlink" x="0px" y="0px"
	 viewBox="94 -4 800 800" style="enable-background:new 94 -4 800 800;" xml:space="preserve">
<style type="text/css">
	.st0{fill:#383838;}
	.st1{fill:#F26222;}
</style>
<g>
	<path class="st0" d="M591.1,221.3c-21.7-13.8-39.9-27-59.5-37.5c-27.3-14.7-57-22.2-88.1-24.5c-79.2-5.9-145.6,21.1-199.1,78.8
		c-33.9,36.6-53.8,80.4-59.8,130.3c-7.8,65.8,7,125.5,47.6,178.1c39.4,51.1,91.1,82.3,155.3,91.6c82.4,12,152.9-12.7,211-71.7
		c34.1-34.6,55-76.8,63.2-125c4.7-27.4,5.1-54.7,0.1-82c-1.1-6-0.2-11.1,7.1-12.2c13.7-2.1,27.3-4.2,41-6c5.2-0.7,7.7,1.4,8.7,7.5
		c14.2,88.1-6,167.2-61.2,237.3c-46.7,59.3-107.9,96-181.9,108.3c-91.7,15.3-174.5-7-245.9-67.4c-49.9-42.2-82.1-95.6-97-159
		c-6.8-29.1-9.3-58.6-7.1-88.9c4.6-62.2,25.9-117.6,64.8-166c45.6-56.8,104.5-92.3,176.2-106.8c25.4-5.2,51.1-6.9,76.7-5.1
		c65.1,4.6,123.1,28,173.6,69.7c6.8,5.6,7.9,10.9,2.5,17.4C609.7,199.7,599.9,211,591.1,221.3z"/>
	<path class="st0" d="M530.4,254.2c-18.2,10.2-35.5,20.1-53.1,29.3c-3.1,1.6-8.2,1-11.9-0.3c-41.4-13.9-80.1-8.3-115.1,17.5
		c-29.4,21.7-45.8,51.2-49.3,88.1c-6.1,65.3,39.3,119.8,98.2,132.1c66.1,13.8,133.6-30.4,146-98.3c0.8-4.6,4.7-10,8.7-12.4
		c15.7-9.6,32-18.3,49.1-27.9c5.5,15.8,2.1,31.1-0.3,45.9c-8.3,51.2-34.5,91.7-77,121.4c-75.2,52.6-182.5,37.4-241.5-34.3
		c-60.6-73.6-55.8-183.8,20-251.6C369.1,205.6,469,205.8,530.4,254.2z"/>
	<path class="st1" d="M807.2,106.2c-8,31-15.6,61-23.6,92.2c29.6,8.4,58.9,16.8,90.3,25.7c-15,8.5-28.4,16-41.7,23.5
		c-27.7,15.5-55.5,30.8-83,46.7c-6.1,3.5-11.8,4.9-18.7,3.8c-38.1-6.2-73.6,0.7-107.2,20.1c-42.2,24.3-84.8,47.8-127.4,71.4
		c-6.1,3.4-9.1,7-9.1,14.7c0.1,24.1-23.5,50.5-48.6,55.7c-33.1,6.8-65.8-11.2-74.9-43.3c-7.1-25.1-2.4-48.8,20.8-68.7
		c18-15.5,47-18.8,68.9-6.7c6.6,3.6,11.2,3.1,17.3-0.3c43.4-24.6,87-48.9,130.5-73.3c32.9-18.5,56.4-45.1,70.2-80.4
		c1.3-3.4,3.8-7.2,6.8-8.9c41.5-23.6,83.3-46.9,124.9-70.2C803.6,107.4,804.7,107.1,807.2,106.2z"/>
</g>
</svg>

