<?xml version="1.0" standalone="no"?>
<!DOCTYPE svg PUBLIC "-//W3C//DTD SVG 20010904//EN"
 "http://www.w3.org/TR/2001/REC-SVG-20010904/DTD/svg10.dtd">
<svg version="1.1" id="Layer_1" xmlns="http://www.w3.org/2000/svg" xmlns:xlink="http://www.w3.org/1999/xlink" x="0px" y="0px"
	 viewBox="94 -4 800 800" style="enable-background:new 94 -4 800 800;" xml:space="preserve">
<style type="text/css">
	.st0{fill:#FFFFFF;}
	.st1{fill:#3F3F3F;}
	.st2{fill:#F26222;}
</style>
<g>
	<path class="st0" d="M470.1,711.1c1.7,0.6,3.2,1.5,4.8,2c24.9,6.9,50.2,10.8,75.8,10.8c100.9,0.2,185.7-34.8,247.3-117
		C877.3,501,897.2,341.8,815.7,207C743.9,87.6,605.5,23.6,469.7,52.2C343.7,78.7,260.9,156.8,215.9,276.4
		c-2.7,7.1-4.4,14.5-6.5,21.7c30.6-74.4,80-131.9,152.4-167.6S510,89.4,587.1,113.8c137.4,43.4,231.6,181.5,208.4,338.7
		c-10.1,68.4-40.8,127.1-90.8,174.9C638.9,690,560,716.1,470.1,711.1z"/>
	<path class="st1" d="M470.1,711.1c89.9,5,168.8-20.9,234.3-83.6c50-47.7,80.7-106.5,90.8-174.9c23.3-157.2-71.1-295.3-208.4-338.7
		c-77.1-24.4-152.9-19-225.3,16.7c-72.3,35.7-121.7,93.1-152.4,167.6c2.1-7.2,3.9-14.6,6.5-21.7C260.6,157,343.4,78.8,469.4,52.3
		C605,23.9,743.6,87.7,815.6,207.1c81.3,134.8,61.4,294-17.8,399.9c-61.6,82.2-146.4,117.2-247.3,117c-25.8,0-51.1-3.9-75.8-10.8
		C473.3,712.6,471.8,711.7,470.1,711.1z"/>
</g>
<path class="st2" d="M314,447.4c5.3-8.2,5.3-8.2,12.8-3.9c27.4,15.6,54.8,31.3,83.5,47.7c71-96.5,153.5-181.3,256.6-245.6
	c2.3,3.4,3.9,5.6,5.5,7.9c0.5,0.7,1,1.3,1.6,2c-2.3,1.4-4.9,2.4-6.7,4.2c-60.4,59.4-118.1,121.3-168.6,189.4
	c-22.5,30.4-43.5,61.8-57.6,97.1c-2.9,7.3-4.8,15.1-7.3,22.6c-0.7,2-2.2,5.5-3.2,5.4c-2.5-0.1-5.6-1.2-7.3-3.1
	c-12.9-14.2-25.5-28.7-38.3-43.1c-22.5-25.5-45-51-67.5-76.5C316.4,450.3,315.3,448.9,314,447.4z"/>
</svg>
