<?xml version="1.0" standalone="no"?>
<!DOCTYPE svg PUBLIC "-//W3C//DTD SVG 20010904//EN"
 "http://www.w3.org/TR/2001/REC-SVG-20010904/DTD/svg10.dtd">
<svg version="1.1" id="Layer_1" xmlns="http://www.w3.org/2000/svg" xmlns:xlink="http://www.w3.org/1999/xlink" x="0px" y="0px"
	 viewBox="94 -4 800 800" style="enable-background:new 94 -4 800 800;" xml:space="preserve">
<style type="text/css">
	.st0{fill:#383838;}
	.st1{fill:#F26222;}
</style>
<g>
	<path class="st0" d="M483.3,616c-122.1-2.4-235.4-50.4-325.1-150.8c-10.8-12.1-19.5-26.3-29.1-39.5c-11.8-16.2-11.1-31.9-0.4-48.9
		c23.1-36.8,52.5-67.8,86.5-94.2c94.1-73.1,201-104.2,319.5-94.2c120.7,10.2,221.3,61.1,301,152.5c8.5,9.8,15.3,21,23.2,31.3
		c14.7,19.2,13.9,37.5,0.4,57.6c-22,32.8-48.5,61.3-79,86C699.1,581.5,599.8,616.3,483.3,616z M495.4,235.3
		c-92.9,0-167.6,73.5-167.7,165.4c-0.2,91.8,74.5,166.1,167,166.3c93.4,0.2,168.5-73.9,168.4-166.2
		C662.9,309,588.3,235.4,495.4,235.3z"/>
</g>
<g>
	<path class="st1" d="M410.4,397.5c15,8.1,30.2,15.9,45,24.5c7.4,4.3,12.5,4.2,19.5-1.6c27.1-22.6,55.3-43.8,82.1-66.7
		c11-9.4,21.9-13.8,37.7-9.1c-43.8,46.1-87.1,91.7-131.1,138.1c-18.8-28.7-36.9-56.2-55-83.6C409.2,398.5,409.8,398,410.4,397.5z"/>
</g>
</svg>