<?xml version="1.0" standalone="no"?>
<!DOCTYPE svg PUBLIC "-//W3C//DTD SVG 20010904//EN"
 "http://www.w3.org/TR/2001/REC-SVG-20010904/DTD/svg10.dtd">
<svg version="1.0" xmlns="http://www.w3.org/2000/svg"
 width="529.000000pt" height="278.000000pt" viewBox="0 0 529.000000 278.000000"
 preserveAspectRatio="xMidYMid meet">
<metadata>
Created by potrace 1.15, written by Peter Selinger 2001-2017
</metadata>
<g transform="translate(0.000000,278.000000) scale(0.100000,-0.100000)"
fill="#000000" stroke="none">
<path d="M1944 2481 c-28 -10 -56 -15 -62 -13 -7 2 -12 -1 -12 -8 0 -6 -4 -9
-10 -5 -27 17 -160 -106 -179 -167 -7 -20 -18 -39 -26 -42 -18 -7 -19 -37 -3
-121 12 -63 13 -65 43 -64 23 1 25 3 8 6 -26 5 -27 7 -14 31 5 9 19 37 30 62
18 38 30 60 49 90 2 2 7 -2 12 -10 8 -13 13 -12 32 7 20 21 21 24 6 35 -15 12
-15 17 -3 51 18 52 85 112 85 77 0 -5 9 -10 20 -10 25 0 25 -2 0 -42 -11 -18
-20 -41 -20 -50 0 -23 33 -24 54 -2 21 20 21 48 1 40 -22 -8 -18 11 6 32 11 9
26 28 31 42 10 22 12 23 16 6 3 -15 7 -13 23 13 24 40 24 41 -5 41 -13 0 -26
4 -28 9 -1 4 -26 1 -54 -8z"/>
<path d="M1200 2145 c0 -30 -3 -30 -36 -9 -14 10 -24 13 -23 8 1 -5 -1 -26 -5
-46 -7 -34 -5 -39 27 -68 20 -17 41 -46 46 -63 8 -22 21 -36 40 -44 23 -8 37
-26 59 -75 27 -59 32 -65 58 -63 29 2 104 43 104 58 0 4 -10 5 -22 2 -33 -8
-87 24 -110 65 l-21 35 26 -30 c37 -42 33 -23 -9 45 -41 66 -38 87 19 117 l32
17 -45 8 c-55 10 -109 35 -117 54 -9 23 -23 16 -23 -11z"/>
<path d="M5064 2053 c-24 -26 -44 -51 -44 -54 0 -4 -13 -10 -29 -14 -35 -7
-51 -25 -79 -86 -37 -77 -33 -85 71 -119 37 -13 67 -27 67 -31 0 -5 5 -9 10
-9 6 0 45 -15 88 -34 42 -18 92 -38 110 -44 l32 -10 0 81 0 82 -33 15 c-26 12
-33 23 -40 58 -7 33 -5 49 7 68 15 22 15 25 -4 44 -11 11 -20 28 -20 38 0 18
-23 36 -67 53 -23 9 -30 5 -69 -38z"/>
<path d="M2690 1869 c-41 -4 -97 -5 -125 -3 -43 4 -54 1 -77 -20 -33 -29 -36
-62 -8 -71 40 -13 20 -69 -36 -101 -15 -9 -16 -14 -7 -26 7 -8 10 -24 7 -35
-6 -22 -6 -22 173 -18 99 2 201 9 227 16 62 16 268 7 316 -13 20 -9 48 -29 62
-47 26 -30 106 -88 180 -130 69 -38 243 -75 358 -75 128 0 191 5 185 15 -3 3
30 16 72 28 75 20 116 41 80 41 -22 0 -22 16 1 29 16 10 15 10 -3 10 -11 0
-46 -6 -78 -14 -53 -12 -57 -12 -45 3 11 14 10 15 -6 9 -10 -4 -61 -10 -113
-13 -76 -5 -94 -4 -88 6 5 9 4 11 -3 6 -10 -6 -71 0 -227 24 -33 5 -61 14 -63
19 -2 6 -10 11 -18 11 -8 0 -14 4 -14 10 0 5 -12 13 -27 16 -47 11 -162 85
-193 123 -46 55 -37 79 16 45 13 -9 27 -14 30 -12 2 3 -7 13 -21 22 -40 26
-32 40 20 33 25 -4 45 -3 45 1 -1 10 -106 57 -155 70 -155 41 -324 56 -465 41z"/>
<path d="M1322 1633 l-23 -16 38 -15 c21 -8 62 -14 91 -13 60 2 70 -13 15 -24
l-38 -8 45 -9 c25 -5 54 -13 65 -19 23 -11 58 3 91 35 18 18 17 18 -6 11 -14
-4 -26 -12 -28 -16 -5 -12 -32 -11 -32 0 0 5 14 20 32 32 22 16 27 24 17 28
-8 2 -18 10 -24 17 -8 11 -19 10 -58 -3 -45 -15 -53 -15 -101 0 -62 20 -55 20
-84 0z"/>
<path d="M1110 1360 c-91 -3 -162 -7 -158 -8 4 -1 -2 -20 -13 -41 -25 -48 -32
-100 -17 -118 8 -10 7 -12 -5 -8 -21 9 -30 -10 -12 -25 11 -9 20 -8 45 10 16
12 30 17 30 11 0 -6 -4 -11 -9 -11 -5 0 -11 -9 -14 -19 -4 -17 -2 -18 15 -8
16 9 22 9 25 0 3 -7 9 -13 14 -13 4 0 6 7 3 15 -8 19 -4 19 32 1 34 -17 88
-10 173 23 37 14 59 17 74 11 l22 -9 -22 0 c-12 -1 -25 -5 -28 -11 -3 -5 -19
-10 -34 -10 -15 0 -36 -9 -46 -21 -13 -14 -29 -19 -50 -17 -18 2 -30 -2 -31
-9 -3 -26 -5 -28 -14 -13 -7 11 -10 11 -10 2 0 -9 -5 -10 -17 -4 -10 5 -24 7
-31 5 -8 -3 -10 1 -6 11 9 23 -22 20 -38 -3 -12 -16 -23 -18 -87 -13 l-73 5 6
47 c4 26 18 80 31 121 14 40 25 73 25 73 0 1 -107 2 -237 4 -131 1 -264 7
-296 13 -32 7 -89 9 -132 5 -41 -3 -109 -9 -150 -12 l-75 -7 0 -606 c0 -424 3
-610 11 -618 8 -8 8 -13 0 -17 -6 -4 -11 -27 -11 -52 l0 -44 1289 0 c1280 0
1289 0 1294 20 3 11 10 20 17 20 7 0 14 -9 17 -20 5 -19 14 -20 177 -20 122 0
176 4 184 12 10 10 17 10 32 0 11 -6 31 -12 44 -12 20 0 28 10 47 55 16 39 26
52 34 45 7 -6 15 -6 23 2 8 8 21 6 49 -8 37 -18 95 -26 182 -25 25 0 50 -4 57
-10 6 -5 45 -11 85 -13 60 -3 76 -8 90 -25 16 -20 27 -21 163 -21 l145 0 -8
23 c-4 12 -18 26 -29 32 -23 10 -30 25 -12 25 6 0 10 7 10 15 0 22 47 42 62
27 17 -17 38 -15 38 3 0 32 38 15 56 -25 14 -30 24 -40 41 -40 17 0 23 5 21
17 -4 25 25 27 53 4 l24 -20 -22 -1 c-13 0 -23 -6 -23 -14 0 -7 -10 -16 -22
-20 -17 -4 -20 -8 -12 -16 13 -13 1078 -7 1147 5 l37 7 0 149 0 149 -27 13
c-16 6 -30 14 -33 18 -3 3 -18 9 -34 13 -16 4 -81 33 -145 64 -64 32 -135 64
-158 71 -23 8 -40 18 -37 23 3 4 -3 11 -13 14 -10 3 -36 14 -58 24 -22 10 -65
30 -96 43 -31 14 -81 40 -110 59 -30 19 -88 51 -129 72 -41 20 -88 45 -105 54
-119 68 -169 93 -232 117 -40 16 -73 32 -73 37 0 4 -7 8 -15 8 -8 0 -36 10
-61 22 -26 12 -65 22 -88 22 -22 1 -44 5 -47 10 -4 5 -29 3 -57 -4 -76 -18
-221 4 -402 60 -105 32 -233 66 -326 85 -34 8 -89 27 -122 44 -34 17 -70 31
-81 31 -19 0 -130 39 -185 66 -24 12 -27 12 -13 1 23 -19 22 -31 -3 -24 -23 6
-25 -9 -11 -59 5 -17 12 -57 16 -90 l6 -59 -131 2 c-135 2 -160 10 -160 48 0
9 -5 25 -10 36 -10 18 -7 19 52 20 47 1 57 3 38 9 -14 4 -42 8 -62 9 -21 1
-38 6 -38 11 0 6 5 10 10 10 6 0 10 4 10 10 0 11 -32 1 -42 -14 -5 -7 -8 -4
-8 7 0 9 -5 17 -11 17 -6 0 -9 -7 -5 -15 3 -8 -2 -19 -12 -24 -16 -10 -16 -10
1 -11 9 0 17 -4 17 -10 0 -5 -14 -10 -31 -10 -26 0 -29 3 -24 20 5 17 2 20
-22 21 l-28 1 25 8 25 7 -30 8 c-16 5 -42 8 -58 8 -20 0 -26 4 -22 15 4 12 3
13 -10 2 -12 -10 -13 -16 -4 -27 7 -7 9 -17 5 -21 -4 -4 -13 1 -20 11 -17 22
-28 22 -24 0 2 -11 -5 -19 -17 -21 -11 -3 -24 -9 -28 -16 -6 -8 -10 -8 -14 2
-2 6 -9 12 -14 12 -6 0 -8 -4 -4 -9 3 -5 1 -12 -5 -16 -17 -10 -1 -25 28 -25
15 0 34 -5 42 -10 12 -8 9 -10 -12 -10 -38 0 -44 -17 -8 -25 19 -4 36 -2 45 5
12 10 15 9 15 -4 0 -17 -6 -19 -55 -17 -26 1 -27 -1 -10 -8 14 -7 -7 -10 -70
-11 -49 -2 -93 -2 -96 -2 -4 1 -72 2 -151 3 -80 0 -151 5 -159 10 -12 7 -11 9
2 9 9 0 22 6 28 13 8 10 7 14 -4 14 -8 0 -15 -4 -15 -9 0 -5 -4 -6 -10 -3 -23
14 -7 25 35 25 29 0 45 -4 46 -12 0 -7 5 -3 11 10 13 26 12 28 -25 37 -21 6
-27 4 -27 -10 0 -9 -4 -14 -9 -11 -17 11 -101 15 -101 6 0 -6 -17 -11 -37 -11
l-38 -1 43 -11 c40 -9 57 -26 30 -28 -7 -1 -2 -5 12 -9 23 -7 22 -8 -10 -10
-31 -1 -32 -2 -13 -10 12 -5 32 -7 44 -5 12 2 29 0 38 -4 24 -13 287 -22 666
-23 187 -1 352 -4 366 -9 16 -4 31 -3 38 4 8 8 11 0 11 -29 0 -33 3 -40 20
-40 11 0 20 4 20 9 0 4 8 7 18 6 9 -1 25 1 35 6 9 4 25 4 35 0 9 -4 28 -7 42
-6 14 1 39 -3 55 -8 21 -7 24 -10 10 -10 -20 -2 -55 -23 -55 -34 0 -9 74 -44
109 -50 26 -5 37 -3 46 10 11 15 17 15 39 5 15 -7 44 -12 65 -12 33 0 40 -4
51 -30 16 -38 24 -38 40 -1 10 26 16 29 56 27 24 0 46 4 48 9 2 6 13 -2 25
-18 13 -15 28 -27 35 -27 7 0 21 -9 31 -20 17 -19 17 -20 1 -20 -9 0 -14 -4
-11 -10 7 -12 45 -14 45 -2 0 13 104 43 108 32 2 -6 14 -10 27 -10 30 0 55
-10 55 -22 0 -5 -9 -7 -20 -3 -12 4 -31 -2 -50 -17 l-31 -22 -23 29 -23 29 4
-31 c6 -35 -11 -51 -34 -32 -10 9 -38 12 -79 11 -51 -3 -64 0 -64 12 0 20 -38
30 -56 15 -14 -11 -13 -14 8 -22 21 -9 21 -10 4 -15 -11 -2 -25 3 -32 13 -12
16 -14 16 -25 -8 -6 -13 -22 -30 -35 -36 -22 -10 -24 -8 -24 14 0 13 5 27 11
30 6 4 8 14 5 22 -3 8 -1 11 4 8 6 -3 10 -2 10 4 0 16 -57 23 -92 12 -18 -6
-49 -12 -68 -14 -19 -3 -43 -8 -54 -12 -10 -5 -26 -4 -35 2 -12 8 -22 7 -36
-3 -16 -12 -21 -12 -37 2 -9 9 -15 21 -12 25 3 5 0 17 -5 26 -9 16 -11 15 -12
-7 -1 -17 -4 -12 -11 18 -10 46 -28 57 -28 18 0 -30 -16 -42 -34 -27 -8 7 -29
14 -48 16 -28 4 -36 0 -44 -18 -6 -12 -9 -16 -7 -9 6 29 -15 9 -31 -30 -10
-24 -26 -59 -37 -79 -22 -43 -24 -53 -6 -43 6 4 9 3 4 -1 -4 -5 -17 -10 -30
-12 -12 -2 -26 -8 -32 -14 -7 -7 -4 -8 8 -4 9 4 17 5 17 1 0 -8 -89 -116 -122
-149 -34 -33 -34 -35 -5 -33 19 1 22 -5 25 -36 2 -22 -1 -38 -7 -38 -6 0 -11
-7 -11 -15 0 -9 -10 -15 -26 -15 -37 0 -64 18 -64 42 0 19 -1 20 -22 4 -13 -9
-33 -21 -45 -26 -24 -10 -33 -26 -10 -17 8 3 14 -1 14 -9 0 -8 -6 -13 -12 -10
-7 2 -17 1 -24 -3 -9 -6 -7 -11 5 -22 13 -11 18 -11 21 -1 7 20 33 14 33 -8 0
-11 7 -23 15 -26 10 -4 15 -20 15 -44 0 -33 -4 -40 -30 -52 -16 -7 -30 -17
-30 -23 0 -5 -5 -2 -11 8 -5 9 -21 17 -34 17 -27 0 -41 -15 -23 -24 7 -3 0 -4
-15 -1 -16 3 -35 0 -43 -6 -10 -8 -18 -9 -24 -3 -15 15 46 69 77 69 27 0 38
23 27 57 -5 17 -33 18 -124 4 -33 -5 -32 -4 15 19 28 13 60 24 73 24 13 1 20
5 17 11 -3 5 0 10 7 10 7 1 23 17 36 36 12 20 19 34 15 32 -89 -45 -179 -82
-220 -91 -38 -8 -54 -17 -62 -34 -11 -25 -36 -31 -45 -10 -3 6 -3 2 0 -10 4
-19 0 -22 -43 -29 -26 -3 -54 -11 -60 -16 -7 -6 -24 -7 -38 -4 -14 4 -25 2
-25 -4 0 -5 -7 -10 -15 -10 -7 0 -18 -6 -22 -13 -10 -17 -63 -31 -63 -18 0 5
10 12 23 14 16 3 14 5 -9 6 -19 0 -34 -5 -37 -13 -4 -9 -22 -13 -54 -13 -48 0
-123 -34 -123 -55 0 -5 -21 -8 -47 -6 l-48 3 -3 47 c-3 42 -1 48 17 48 11 0
26 9 34 20 8 12 27 22 44 23 46 3 29 25 -33 43 -30 8 -60 22 -68 30 -8 8 -19
14 -25 14 -6 0 -11 4 -11 8 0 4 -10 8 -22 9 -11 1 -24 6 -27 10 -9 12 -89 73
-96 73 -12 0 -80 55 -114 92 -35 39 -55 49 -45 24 3 -7 -2 -16 -10 -19 -11 -5
-18 2 -22 20 -6 23 -8 24 -19 10 -7 -10 -17 -17 -23 -17 -5 0 -24 -13 -42 -30
-31 -29 -80 -41 -80 -20 0 6 -6 10 -13 10 -19 0 -50 37 -42 49 3 6 -1 11 -9
11 -9 0 -16 9 -16 20 0 11 -6 20 -13 20 -21 0 -28 -12 -16 -27 9 -10 8 -13 -5
-13 -9 0 -16 7 -16 15 0 11 -11 15 -39 15 -39 0 -68 20 -56 40 3 5 2 10 -4 10
-5 0 -11 -6 -14 -12 -4 -10 -7 -10 -18 0 -11 10 -10 12 3 12 18 0 48 26 48 40
0 5 -7 15 -15 23 -13 14 -10 17 25 34 22 10 40 24 40 32 0 9 7 11 20 7 11 -3
29 -9 40 -12 11 -4 20 -2 20 4 0 19 55 -3 58 -24 3 -24 54 -48 88 -41 16 3 24
0 24 -10 0 -8 5 -11 10 -8 6 3 10 -1 10 -9 0 -9 5 -16 10 -16 14 0 13 2 -14
62 -39 88 -45 105 -61 174 -17 75 -20 144 -5 144 6 0 10 9 10 20 0 11 6 20 14
20 9 0 16 -19 22 -52 l8 -53 4 44 c3 45 25 80 37 61 4 -6 11 -8 16 -5 5 4 9 1
9 -5 0 -6 10 -10 22 -8 26 4 35 -21 37 -97 1 -27 6 -67 12 -88 9 -33 13 -36
25 -26 10 8 14 27 13 57 -2 32 1 48 14 57 9 7 17 19 17 28 0 34 13 46 58 53
26 3 52 10 57 14 10 8 80 15 128 12 20 -2 27 -7 27 -22 0 -11 7 -37 16 -58
l15 -37 19 25 c10 13 16 28 14 32 -3 4 1 17 8 28 9 14 10 23 3 28 -10 7 -37
61 -37 72 0 3 -6 9 -14 13 -8 5 -12 12 -9 18 4 5 1 9 -5 9 -6 0 -8 5 -5 10 4
6 12 10 18 9 7 -1 21 -1 32 0 34 2 -1 25 -43 27 -72 3 -73 4 -65 17 4 6 6 22
4 35 -2 15 3 22 14 22 11 0 15 -5 11 -15 -3 -8 -2 -15 3 -15 5 0 11 9 14 20 3
11 13 20 22 20 11 0 15 -5 12 -14 -3 -8 0 -17 7 -19 17 -7 66 4 66 14 0 5 5 9
10 9 6 0 10 -9 10 -20 0 -13 -7 -20 -19 -20 -23 0 -36 -16 -22 -25 6 -3 7 -13
4 -21 -5 -13 -1 -15 16 -9 12 4 28 2 35 -4 10 -8 17 -7 26 4 7 8 19 15 27 15
9 0 11 5 7 13 -5 8 -2 8 9 -2 9 -7 17 -22 17 -33 0 -15 3 -17 19 -8 11 5 29
10 41 10 16 0 20 4 16 15 -9 24 23 31 39 9 12 -16 14 -17 15 -3 0 29 -23 40
-61 29 -18 -6 -45 -10 -58 -10 -19 0 -21 3 -12 14 11 13 45 24 105 32 16 2 35
9 42 15 9 7 15 5 23 -8 6 -11 11 -13 11 -5 0 7 5 10 10 7 12 -7 14 -36 3 -34
-17 3 -33 -1 -33 -8 0 -5 16 -9 35 -10 19 -1 35 2 35 6 0 4 10 7 23 5 12 -1
34 -3 48 -3 21 -1 27 -6 27 -26 0 -27 -25 -34 -46 -13 -9 9 -12 8 -12 -5 0
-10 -8 -17 -20 -17 -29 0 -25 -27 5 -32 21 -5 25 -2 20 13 -9 26 12 24 26 -2
8 -16 13 -18 19 -9 6 10 9 9 11 -3 3 -12 8 -14 19 -7 12 7 12 12 2 22 -14 14
-16 48 -2 48 6 0 10 -9 10 -20 0 -11 5 -20 10 -20 6 0 10 9 10 20 0 11 6 20
14 20 8 0 17 4 20 9 3 4 -5 6 -18 4 -13 -3 -27 0 -30 6 -5 7 3 11 21 12 15 0
36 4 46 8 37 14 -6 31 -73 28 -45 -1 -64 2 -68 11 -3 9 4 12 19 11 13 -1 38
-1 54 0 27 1 28 3 13 15 -10 7 -18 18 -18 24 0 6 -8 13 -17 15 -10 3 63 5 161
6 99 0 177 4 174 7 -12 11 -465 16 -472 5 -5 -7 5 -11 26 -12 34 -1 29 -3 -34
-14 -21 -3 -37 -11 -35 -17 1 -6 -4 -13 -10 -15 -7 -3 -13 0 -13 7 0 6 -5 8
-11 5 -6 -4 -16 0 -22 8 -7 9 -21 18 -32 20 -11 2 -8 4 7 2 15 -1 29 4 32 11
4 10 -14 13 -75 12 -52 0 -79 -4 -79 -12 0 -7 -3 -6 -9 2 -8 13 -61 14 -431 2z
m-710 -654 c0 -8 8 -17 18 -21 16 -6 16 -7 -1 -20 -11 -8 -16 -22 -14 -36 2
-13 2 -18 0 -11 -3 10 -18 13 -49 10 -40 -3 -45 -1 -55 24 -15 36 -24 35 -39
-3 -8 -19 -16 -26 -20 -19 -5 8 -10 9 -14 2 -3 -6 -2 -13 4 -17 16 -10 12 -48
-5 -41 -8 3 -20 -3 -28 -14 -13 -19 -14 -19 -27 5 -7 14 -19 25 -26 25 -15 0
-24 33 -14 50 5 8 13 2 26 -19 19 -33 44 -42 44 -16 0 8 -9 15 -20 15 -28 0
-25 22 8 53 25 24 36 27 99 27 40 0 75 5 78 10 9 15 35 12 35 -4z m3513 -188
c12 -6 28 -17 35 -25 7 -7 22 -13 32 -13 10 0 20 -3 22 -7 2 -5 18 -16 35 -26
25 -14 37 -15 52 -7 11 5 22 10 25 10 11 0 5 -35 -9 -54 -14 -18 -29 -20 -153
-21 -107 0 -145 -4 -176 -18 -56 -25 -77 -21 -121 18 -27 25 -44 34 -58 29
-11 -3 -23 -1 -27 6 -6 9 -13 7 -28 -8 -12 -12 -22 -16 -24 -10 -2 6 -13 8
-27 3 -16 -5 -20 -10 -12 -14 9 -6 9 -14 0 -34 -14 -31 -24 -34 -33 -12 -5 13
-10 14 -26 5 -36 -19 -79 25 -80 80 0 20 -5 41 -12 48 -9 9 -9 12 3 12 7 0 25
3 38 7 18 5 22 3 16 -7 -6 -10 1 -12 32 -8 32 5 44 2 57 -13 17 -20 46 -26 46
-9 0 6 8 5 20 -2 10 -7 23 -8 27 -4 4 5 2 11 -4 13 -7 3 -13 11 -13 18 0 18
57 37 78 26 30 -15 88 -31 113 -31 43 0 114 27 117 44 4 19 25 21 55 4z
m-1257 -139 c3 -6 21 -9 39 -7 18 2 37 -2 45 -10 7 -8 21 -11 32 -9 23 6 106
-20 130 -40 23 -20 32 -63 16 -79 -7 -7 -38 -15 -68 -18 -30 -2 -55 -5 -55 -6
0 -1 -11 -4 -25 -6 -34 -6 -67 3 -90 26 -10 10 -38 30 -62 43 -39 22 -43 27
-43 63 0 21 -4 42 -10 46 -5 4 11 8 37 8 26 0 50 -5 54 -11z m-1825 -32 c19
-5 28 -47 9 -47 -22 0 -8 -19 21 -29 17 -6 33 -19 35 -29 3 -10 18 -26 35 -37
16 -11 29 -24 29 -29 0 -5 8 -15 18 -22 16 -13 16 -13 0 -14 -10 0 -18 -5 -18
-11 0 -6 -7 -8 -16 -5 -8 3 -29 -1 -46 -10 -25 -13 -32 -14 -39 -2 -5 7 -9 16
-9 20 0 4 -11 10 -25 14 -14 3 -25 9 -25 13 0 4 -18 5 -41 3 -31 -3 -39 -8
-35 -19 4 -8 -4 -26 -16 -39 -25 -26 -40 -31 -36 -11 2 7 -1 13 -7 14 -5 1 -9
-5 -7 -13 2 -8 -2 -14 -7 -14 -5 0 -11 10 -13 23 -2 17 -9 21 -30 19 -22 -2
-28 1 -28 17 0 11 -13 27 -30 38 -37 22 -41 47 -5 41 14 -3 23 -1 22 6 -3 15
43 20 56 7 8 -8 8 -11 -1 -11 -7 0 -12 -4 -12 -9 0 -9 68 -6 78 3 3 3 0 6 -6
6 -7 0 -12 5 -12 10 0 6 7 10 15 10 8 0 15 -4 15 -8 0 -13 84 -12 92 1 4 7 8
24 8 40 0 15 5 27 11 27 6 0 9 8 6 18 -7 22 -16 61 -10 46 2 -7 13 -14 24 -17z
m427 -70 c12 -15 9 -79 -7 -119 -7 -19 -15 -25 -29 -21 -11 2 -23 0 -26 -6 -8
-12 -59 -15 -69 -5 -10 10 -120 54 -136 54 -11 0 -11 3 -1 15 7 9 21 13 31 10
11 -4 19 -2 19 4 0 6 7 11 15 11 9 0 18 7 21 15 4 8 18 15 33 16 14 0 46 9 71
19 54 23 64 24 78 7z m-873 -69 c7 -7 22 -21 34 -31 12 -10 19 -22 16 -27 -3
-6 1 -10 9 -10 20 0 20 -9 1 -30 -13 -15 -13 -19 5 -38 11 -11 16 -24 10 -27
-13 -8 -60 35 -60 54 0 13 -14 16 -80 16 -44 0 -80 -3 -80 -7 0 -5 -9 -8 -20
-8 -12 0 -20 7 -20 17 0 23 70 83 98 83 12 0 22 5 22 10 0 14 49 12 65 -2z"/>
</g>
</svg>
